# xmcd
#
# Track frame offsets:
#	150
#	9404
#	18658
#	37486
#	52785
#	70237
#	89074
#	101364
#	113373
#	122768
#	138259
#	153438
#	171377
#	186225
#	200343
#	212955
#	229149
#	244528
#	257231
#	274363
#
# Disc length: 3831 seconds
#
# Revision: 0
# Processed by: cddbd v1.4PL0 Copyright (c) Steve Scherf et al.
# Submitted via: audiograbber 1.81.02
#
DISCID=210ef514
DTITLE=axé2003 - as melhores
DYEAR=2003
DGENRE=sacanagem
TTITLE0=descontrolada
TTITLE1=égua pocotó
TTITLE2=dadá-dá
TTITLE3=explosão prolongado
TTITLE4=carrerinha
TTITLE5=cachorrinho
TTITLE6=siliconada
TTITLE7=gata molhada
TTITLE8=familia adams
TTITLE9=pancadão
TTITLE10=dança da mãozinha
TTITLE11=dança do maluquinho
TTITLE12=rebolaxa
TTITLE13=destrambelhado
TTITLE14=hui baixaria
TTITLE15=pissirico - pissirico
TTITLE16=me solta
TTITLE17=zoeira total
TTITLE18=preferencia nacional cecéu
TTITLE19=vai serginho
EXTD=
EXTT0=
EXTT1=
EXTT2=
EXTT3=
EXTT4=
EXTT5=
EXTT6=
EXTT7=
EXTT8=
EXTT9=
EXTT10=
EXTT11=
EXTT12=
EXTT13=
EXTT14=
EXTT15=
EXTT16=
EXTT17=
EXTT18=
EXTT19=
PLAYORDER=
